<svg xmlns="http://www.w3.org/2000/svg" xml:space="preserve" width="110" height="110" version="1.0"><path d="M83 80a6 6 0 0 0-3.043-2.982L65 73v-5.001l-3.243 3.241a6 6 0 0 1-4.242 1.757h-5.031a6 6 0 0 1-4.242-1.757L45 67.999V73l-14.957 4.018A6 6 0 0 0 27 80l-4 7h64z" style="fill:#fff"/><path d="M70 49c-.423 0-.741.102-1.004.243-.007-.767.034-1.515 0-2.243H41.063A66 66 0 0 0 41 50v12.343c0 1.061.422 2.079 1.172 2.829l6.071 6.068a6 6 0 0 0 4.242 1.757h5.031a6 6 0 0 0 4.242-1.757l6.071-6.068a4 4 0 0 0 1.172-2.829v-3.53c2.226-.873 3-4.66 3-7.59C72 50.111 71 49 70 49" style="fill:#bf8662"/><circle cx="55" cy="84" r="2" style="fill:#f3b607"/><circle cx="55" cy="77" r="2" style="fill:#f3b607"/><path d="M41.063 47a60 60 0 0 0-.059 2.243A2.05 2.05 0 0 0 40 49c-1 0-2 1.111-2 2.222 0 2.931.774 6.717 3 7.59v3.53c0 1.061.422 2.079 1.172 2.829l6.071 6.068a6 6 0 0 0 4.242 1.757H55V47z" style="fill:#cc9978"/><path d="M51 62h8s0 3-4 3-4-3-4-3" style="fill:#9c6144"/><path d="M51.994 50.997a2 2 0 0 0-2-2h-.006c.001.021.006.041.006.062a2 2 0 0 1-1.994 2 1.996 1.996 0 0 0 3.994-.062M61.987 50.997a2 2 0 0 0-2-2h-.006c.001.021.006.041.006.062a2 2 0 0 1-1.994 2 1.996 1.996 0 0 0 3.994-.062" style="fill:#3e3e3f"/><path d="M72 31.5a6.5 6.5 0 0 0-6.5-6.5 6.47 6.47 0 0 0-3.983 1.371 7.983 7.983 0 0 0-13.034 0A6.47 6.47 0 0 0 44.5 25a6.5 6.5 0 0 0-6.5 6.5c0 2.3 1.198 4.316 3 5.472V47h28V36.972a6.49 6.49 0 0 0 3-5.472" style="fill:#f1f2f2"/><path d="M61 36h2v9h-2z" style="fill:#e2e4e5"/><path d="M55 47V23a7.98 7.98 0 0 0-6.517 3.371A6.47 6.47 0 0 0 44.5 25a6.5 6.5 0 0 0-6.5 6.5c0 2.3 1.198 4.316 3 5.472V47z" style="fill:#fff"/><path d="M54 36h2v9h-2zM47 36h2v9h-2z" style="fill:#e2e4e5"/><path d="M66 47v6h1l2-4v-2zM41 47v2l2 4h1v-6zM55 60c-2-3-7-1-9 2h9zM55 60c2-3 7-1 9 2h-9z" style="fill:#3e3e3f"/></svg>