<svg viewBox="0 0 64 64"><g fill="none" fill-rule="evenodd" stroke="currentColor" stroke-width="20.835" clip-rule="evenodd" image-rendering="optimizeQuality" shape-rendering="geometricPrecision" text-rendering="geometricPrecision"><path stroke-linecap="round" stroke-linejoin="round" d="m7095 7523 142 58 2 386h-636l-3-386 144-58" transform="matrix(.0922 0 0 .09295 -605.96 -682.935)"/><path stroke-linecap="round" stroke-linejoin="round" d="m6603 7967 318-232 318 232" transform="matrix(.0922 0 0 .09295 -605.96 -682.935)"/><path d="m6603 7581 257 198m379-198-259 197" transform="matrix(.0922 0 0 .09295 -605.96 -682.935)"/><path stroke-linecap="round" stroke-linejoin="round" d="M6746 7689v-273h348v276m-241-218h193m-254 67h254m-254 67h254m-254 67h254" transform="matrix(.0922 0 0 .09295 -605.96 -682.935)"/></g></svg>