<svg xmlns="http://www.w3.org/2000/svg" width="1136" height="691.423" data-name="Layer 1"><path fill="#ffb8b8" d="M791.78 331.49s-45.698-9.255-39.913 10.413 43.962 6.941 43.962 6.941Z"/><path fill="#575a89" d="M890.368 227.607a4.287 4.287 0 0 1 7.111 2.45l1.562 9.072s7.061 36.286 1.015 59.336-10.336 53.412-26.674 56.646c-13.981 2.768-67.14-1.615-82.188-2.938a4.283 4.283 0 0 1-3.907-4.364l.281-13.24a4.29 4.29 0 0 1 3.834-4.175l60.862-6.49a4.28 4.28 0 0 0 3.793-3.665c1.447-10.354 6.129-42.456 10.779-59.333 3.757-13.639 16.098-26.515 23.532-33.3"/><path fill="#3f3d56" d="M716 668.253h420v2H716z"/><path fill="#ffb8b8" d="M850.822 614.608v27.766l15.618 3.47 10.413-5.206-1.157-21.981zM943.086 614.608v27.766l15.619 3.47 10.412-5.206-1.157-21.981z"/><path fill="#2f2e41" d="M882.059 389.009s-20.825 42.227-20.246 75.2a452 452 0 0 1-2.892 59.58l-10.413 98.917 33.55 1.736 15.62-106.437 30.08-82.141 11.568 97.76 2.893 98.337h28.923s13.304-93.131 5.784-113.956c0 0 17.354-116.849 3.47-122.633s-98.337-6.363-98.337-6.363"/><path fill="#2f2e41" d="M861.234 634.854s-5.784-21.403-13.883-10.412-31.236 29.5-31.236 29.5-34.708 18.512-2.893 23.14 35.286-5.785 35.286-5.785 5.206-2.893 9.834-1.157 24.874 1.157 26.03-5.785-6.362-45.12-8.676-38.178-14.462 8.677-14.462 8.677M967.67 634.275s0-6.363-10.99-6.941-12.726 6.941-12.726 6.941-2.892 2.893-3.47 11.57 0 31.236 0 31.236-5.207 17.354 18.51 13.883 15.04-21.403 15.04-21.403Z"/><path fill="#ffb8b8" d="m925.443 173.244-2.892 32.393-5.206 12.148 13.883 19.668 34.129-31.816s-6.363-17.353-2.314-27.187Z"/><path fill="#575a89" d="m1002.957 228.776-.266 2.851-10.147 108.213s-.399 5.032-1.139 11.743c-1.25 11.349-3.47 27.494-6.38 32.22-4.628 7.52-1.157 13.883-1.157 13.883-26.61 15.618-105.28-6.942-105.28-6.942l17.932-71.729s-16.196-74.62-14.461-81.562 38.178-31.816 38.178-31.816l1.076 2.893c15.532 20.824 31.318 2.892 35.946-1.157l9.255-8.099Z"/><path fill="#3f3d56" d="M884 427.253c-55.15 7.482-107.762 10.22-156.445 5.614a377.4 377.4 0 0 1-51.316-8.812c-30.955-7.328-68.953-7.327-110.7-3.426a317.7 317.7 0 0 0-74.514 15.803c-32.352 11.2-67.793 10.23-105.368.855a192.2 192.2 0 0 1-44.242-17.616c-27.47-14.762-59.982-9.418-95.415 7.582v-132c33.08-14.407 65.307-16.733 96.51-4.588a204 204 0 0 0 35.14 10.483 277 277 0 0 0 130.553-5.895c57.369-19.439 117.379-13.396 178.151 0 67.707 14.3 133.697 15.144 197.646 0ZM0 668.253h420v2H0z"/><path fill="#ff6584" d="m551.394 31.583-31.583 18.234-18.234-31.583L533.16 0z"/><path fill="#3f3d56" d="m434.394 190.583-31.583 18.234-18.234-31.583L416.16 159z"/><path fill="#d0cde1" d="m755.394 148.583-31.583 18.234-18.234-31.583L737.16 117z"/><path fill="#2f2e41" d="m178.85 423.599 19.097 88.411-57.998 130.14 33.95 14.854 65.07-149.238-41.597-131.064-24.755 6.366z"/><path fill="#2f2e41" d="M161.875 399.29s7.073 12.731 22.633 23.34 48.096 80.631 48.096 80.631L197.24 644.72l48.802 13.438 26.877-166.213-55.168-124.482ZM144.193 637.2s-7.073 7.78-4.244 13.438 4.244 20.511 4.244 20.511h6.366v-16.975l20.51 19.097s47.39 4.244 46.682 0-28.292-14.146-28.292-14.146l-13.438-20.511Z"/><path fill="#2f2e41" d="M206.434 639.06s-7.073 7.78-4.243 13.439 4.243 20.511 4.243 20.511h6.366v-16.975l20.511 19.097s47.388 4.244 46.681 0-28.291-14.146-28.291-14.146l-13.439-20.511Z"/><circle cx="189.459" cy="178.616" r="26.877" fill="#a0616a"/><path fill="#a0616a" d="M167.533 180.03s-2.121 26.878-15.56 36.78-13.438 18.39-13.438 18.39l54.46 24.754-12.73-26.877s-3.537-1.414 2.121-8.487 10.61-24.048 10.61-24.048Z"/><path fill="#575a89" d="M223.056 370.645a152.3 152.3 0 0 1-50.22 29.15L160 404.254s-27.145-32.944-13.438-58.901a40.7 40.7 0 0 1 11.777-13.962l-.283-1.238-6.882-30.024-.615-2.688-20.512-4.95s-.064.02-.184.049c-1.534.403-11.939 2.313-4.06-21.976 5.242-16.161 9.043-31.549 11.183-40.955a9.983 9.983 0 0 1 12.345-7.44c6.568 1.802 14.727 5.222 19.617 11.616 9.195 12.024 11.052-.531 11.052-.531s25.727 28.823 24.312 41.554a50.6 50.6 0 0 0 .312 10.242v.014c.17 1.513.374 3.09.608 4.703 1.754 11.911 5.149 25.753 6.394 30.619q.138.52.233.905c.149.587.234.905.234.905Z"/><path d="m186.63 334.927-5.658 19.096s-21.7-5.53-34.41-8.671a40.7 40.7 0 0 1 11.777-13.962l-.283-1.238-6.882-30.024-.615-2.688-20.512-4.95s-.064.02-.184.049l-1.23-9.244s35.364 2.121 37.486 10.609-2.122 16.975-4.244 18.39 0 0 4.244 2.121-1.415 0-4.244 4.244.707.707 1.415 2.83 0-.708-.708 2.828 2.83.708 3.537.708 20.511 9.902 20.511 9.902" opacity=".2"/><path fill="#a0616a" d="m180.265 331.39 45.973 12.024s24.755-25.462 38.194-17.682-24.048 25.462-24.048 25.462l-13.438 2.83-48.803-5.659Z"/><path fill="#575a89" d="m128.633 280.465 2.829 21.22s-2.122 0 0 4.95 0 14.853 0 14.853-4.244.707-.708 2.83 7.073 7.78 5.659 9.901-4.244 4.951 2.122 6.366 42.437 10.61 42.437 10.61l5.658-19.098s-19.804-9.902-20.511-9.902-4.244 2.83-3.537-.707 1.415-.707.708-2.83-4.244 1.415-1.415-2.828 8.488-2.122 4.244-4.244-6.366-.707-4.244-2.122 6.366-9.902 4.244-18.39-37.486-10.609-37.486-10.609M183.261 226.113l2.131-3.389a7.075 7.075 0 0 0-2.222-9.755l-16.239-10.213a7.075 7.075 0 0 0-9.755 2.222l-2.132 3.389a7.06 7.06 0 0 0-6.014 3.301l-5.244 8.339a7.075 7.075 0 0 0 2.222 9.755l21.883 13.763a7.075 7.075 0 0 0 9.755-2.223l5.244-8.338a7.06 7.06 0 0 0 .371-6.85"/><path fill="#2f2e41" d="M188.523 178.154c1.503-2.196.844-5.247 1.92-7.682 1.69-3.822 6.673-4.606 10.845-4.858a32 32 0 0 1 8.306.224 7.98 7.98 0 0 1 5.66 4.316c.585 1.25.524-2.624.25-7.602a24.02 24.02 0 0 0-17.898-21.931l-.174-.045c-5.04-1.292-10.246-2.28-15.427-1.798s-10.385 2.588-13.708 6.592c-1.519 1.83-2.614 4.005-4.3 5.681-2.964 2.946-7.275 3.94-11.245 5.244a33.5 33.5 0 0 0-12.353 6.734 18.18 18.18 0 0 0-6.191 12.344c-.217 5.508 3.15 11.28 8.772 12.502a6.34 6.34 0 0 1 2.68 1.235c5.292 4.312-.966 8.54-1.038 13.248-.06 3.93 4.252 6.595 8.17 6.873a15.814 15.814 0 0 0 16.05-12.127c.67-3.21.293-6.531-.013-9.795-.35-3.737 7.885-12.315 2.43-6.013a9.2 9.2 0 0 0-2.13 4.217c-1.006 5.116 3.626 6.957 6.505 9.874a12.22 12.22 0 0 1 2.652 12.645 14.086 14.086 0 0 0 2.99-17.721c-.914-1.48-2.107-2.776-2.971-4.285-1.349-2.355-1.614-7.412 2.315-7.178 2.805.167 5.665 2.575 7.903-.694"/><circle cx="945.111" cy="159.361" r="29.501" fill="#ffb8b8"/><path d="m1001.534 232.784-10.146 108.213s-.4 5.032-1.14 11.742c-21.536 5.149-81.002 9.082-81.002 9.082l-2.892-20.824 65.944-17.932s-8.098-45.12 1.157-63.631a143 143 0 0 0 6.073-13.84 20.08 20.08 0 0 1 22.006-12.81" opacity=".2"/><path fill="#ffb8b8" d="M912.717 338.104s-45.698-9.255-39.913 10.413 43.962 6.941 43.962 6.941Z"/><path fill="#575a89" d="m985.025 225.883 17.932 2.893s12.726 34.707 10.412 58.424-1.735 54.375-17.354 60.16-85.612 10.412-85.612 10.412l-2.892-20.824 65.944-17.933s-8.098-45.12 1.157-63.63 10.413-29.502 10.413-29.502"/><path fill="#2f2e41" d="m919.958 129.397-5.67-2.27s11.855-13.053 28.35-11.918L938 110.102s11.34-4.54 21.65 7.377c5.42 6.265 11.69 13.63 15.6 21.925h6.072l-2.534 5.58 8.87 5.58-9.105-1.002a31.2 31.2 0 0 1 .247 9.257 11.98 11.98 0 0 1-4.385 7.835s-7.032-14.556-7.032-16.826v5.675s-5.67-5.108-5.67-8.513l-3.094 3.973H938l3.093-5.108-11.856 1.703 4.64-6.243-18.357 25.778s-10.51-29.183 4.439-37.696"/><circle cx="565" cy="363.253" r="108" fill="#6415ff"/><path fill="#d0cde1" d="M618 384.718c0 6.628-24.333 23.25-52.5 23.25s-49.5-16.622-49.5-23.25 21.333 2.25 49.5 2.25 52.5-8.877 52.5-2.25"/><circle cx="604" cy="332.253" r="12" fill="#3f3d56"/><circle cx="526" cy="332.253" r="12" fill="#3f3d56"/><circle cx="533" cy="326.253" r="6" fill="#d0cde1"/><circle cx="594" cy="326.253" r="6" fill="#d0cde1"/><circle cx="567" cy="219.253" r="43" fill="#6415ff"/><path fill="#3f3d56" d="M553.19 223.704c15.186 9.04 15.732 36.132 15.732 36.132s-24.076 12.434-39.262 3.394-15.731-36.132-15.731-36.132 24.076-12.435 39.262-3.394"/><path fill="#3f3d56" d="M606.916 258.328c-13.724 11.135-39.34 2.3-39.34 2.3s-3.366-26.887 10.358-38.022 39.34-2.3 39.34-2.3 3.367 26.887-10.358 38.022"/></svg>