<svg xmlns="http://www.w3.org/2000/svg" width="1035.48" height="627.636" data-name="Layer 1"><path fill="#f2f2f2" d="M687 214.649 336.163 0l-53.388 87.261a65.99 65.99 0 0 1-68.855 112.541l-17.325 28.317H344.48v179.073l360.31 220.444L780.2 504.38H687Z"/><ellipse cx="514.424" cy="470.263" fill="#6415ff" rx="63.537" ry="9.822"/><path fill="#6415ff" d="m516.48 383.28 64.018-73.235a51 51 0 0 0-72.915-71.326 51 51 0 1 0-71.326 72.915l71.223 71.645"/><path fill="none" stroke="#3f3d56" stroke-miterlimit="10" stroke-width="2" d="M1 227.119h345.48v313.26H1zM689 190.119h345.48v313.26H689z"/><circle cx="249.48" cy="144.279" r="43" fill="#6415ff"/><path fill="none" stroke="#3f3d56" stroke-miterlimit="10" stroke-width="2" d="M351.48 378.28s54-19 77 7 87-15 87-15M790.48 385.28s-10-24-78-2-164 21-188-13l64.018-73.235a51 51 0 0 0-72.915-71.326 51 51 0 1 0-71.326 72.915l71.223 71.645"/><ellipse cx="522.536" cy="462.101" fill="none" stroke="#3f3d56" stroke-miterlimit="10" stroke-width="2" rx="63.537" ry="9.822"/><ellipse cx="515.776" cy="531.192" fill="#6415ff" rx="50.019" ry="7.732"/><ellipse cx="515.776" cy="590.055" fill="#6415ff" rx="33.796" ry="5.224"/><ellipse cx="522.536" cy="524.304" fill="none" stroke="#3f3d56" stroke-miterlimit="10" stroke-width="2" rx="50.019" ry="7.732"/><ellipse cx="522.536" cy="584.87" fill="none" stroke="#3f3d56" stroke-miterlimit="10" stroke-width="2" rx="33.796" ry="5.224"/><circle cx="202.598" cy="357.484" r="33.252" fill="#2f2e41"/><path fill="#9f616a" d="M186.725 374.283s-10.83 23.983-13.925 24.756 25.53 14.7 25.53 14.7 5.415-29.399 7.736-30.946-19.341-8.51-19.341-8.51"/><circle cx="202.971" cy="369.641" r="22.435" fill="#9f616a"/><path fill="#2f2e41" d="M221.76 540.38h-95.4c3.19-11.59 6.6-23.08 8.52-29.46.97-3.2 1.56-5.12 1.56-5.12s71.95 15.47 73.49 16.25a18.2 18.2 0 0 1 2.29 3.02c2.25 3.3 5.84 8.97 9.54 15.31"/><path fill="#9f616a" d="m103.173 321.676-23.21-35.587s5.74-37.331-1.996-30.368-10.185 35.08-10.185 35.08l26.88 40.932ZM313.6 386.661l20.889-1.547s24.756-26.304 26.303-17.794-20.114 27.077-20.114 27.077l-28.625 3.095Z"/><path fill="#3f3d56" d="M161.195 394.397v-7.736s-20.114-13.152-19.34-15.473-1.548-3.868-1.548-3.868-2.32-3.094-2.32-3.868-3.095-1.547-3.095-1.547L115.55 339.47s-10.83-21.662-13.152-20.888-14.699 5.415-13.151 8.51 44.87 69.626 44.87 69.626 2.321 14.7 6.19 14.7 20.887-17.02 20.887-17.02M213.028 403.681s17.02-.774 17.794 0 11.604 0 11.604 0 29.398-6.963 31.72-9.284 41.002-12.378 42.55-7.736 5.414 13.925 1.546 15.473-108.308 27.85-108.308 27.85Z"/><circle cx="190.966" cy="322.486" r="13.76" fill="#2f2e41"/><path fill="#2f2e41" d="M172.62 315.033a13.76 13.76 0 0 1 12.326-13.685 14 14 0 0 0-1.433-.075 13.76 13.76 0 1 0 0 27.52 14 14 0 0 0 1.433-.075 13.76 13.76 0 0 1-12.326-13.685"/><ellipse cx="206.467" cy="350.433" fill="#2f2e41" rx="22.933" ry="13.76"/><path fill="#3f3d56" d="M180.15 386.274s-6.963 5.416-8.51 6.19-10.832-6.963-12.379-6.963S137.6 408.71 137.6 408.71s3.739 4.305 0 26.303c-1.401 8.25-4.183 43.52-4.183 48.162s-15.157 16.05-1.232 26.107 80.458 20.888 81.231 14.699-7.736-22.436-3.868-30.172 3.868-36.36 3.868-36.36l4.642-30.172 3.868-23.983s-18.18-5.028-19.727-5.028-8.51 10.83-22.049-11.992"/><path fill="#6415ff" d="m861.457 312.999 15.831-.614.79 20.354-15.831.614z"/><path fill="#ffb9b9" d="M805.875 383.668s-21.923-10.474-21.572-1.428 22.099 14.997 22.099 14.997Z"/><path fill="#2f2e41" d="M907.82 503.38H803.83c2.17-10.18 6.3-22.46 9.53-31.31 2.56-7 4.54-11.86 4.54-11.86 11.81-13.32 28.95-13.66 45.03-10.37 1.92.39 3.83.83 5.71 1.32.22.05.44.11.66.17 3.76.97 7.41 2.09 10.86 3.21 5.95 1.94 11.32 3.9 15.66 5.23a38.6 38.6 0 0 0 6.7 1.57 11 11 0 0 0 1.5.06c1.72-.07 2.91 1.78 3.68 5.01 1.74 7.29 1.34 21.65.12 36.97"/><path fill="#ffb9b9" d="M887.307 293.31s12.053 18.785 16.751 23.133-8.52 13.92-8.52 13.92l-23.658 3.182s.297-21.528-.921-23.746 16.348-16.488 16.348-16.488"/><path fill="#6415ff" d="M866.743 317.89s4.874 8.87 9.397 8.695 27.918-10.142 28.917-13.578 7.75 24.613 7.75 24.613L855.56 438.365l-13.964-9.65 6.766-59.151 5.557-31.925Z"/><path fill="#575a89" d="M907.169 408.052a31.7 31.7 0 0 0-3.512 14.858c.009.226.018.452.038.678.541 10.466 4.397 22.57 5.78 31.372 1.004 6.314.718 10.923-2.977 12.006-8.959 2.613 1.306 4.48-33.353 16.016s-40.708 1.578-40.795-.683 4.908-19.443 3.733-20.53-16.435 14.227-21.046 12.141-.526-13.569-.526-13.569 10.387-24.184 10.168-29.838 15.733-32.32 15.733-32.32l10.851-70.633s4.172-9.222 9.782-10.572a13.9 13.9 0 0 1 10.265 1.867l-9.388 20.749-9.904 36.623 1.657 13.525s11.517-24.229 19.082-33.582 23.693-31.495 23.693-31.495 3.765-12.705.923-16.502c-2.843-3.808 11.857-4.378 18.124 11.234 3.322 8.274 8.716 20.612 12.094 32.1 3.011 10.178 4.433 19.692 1.45 25.13-4.558 8.308-16.026 19.228-21.872 31.425"/><path d="M929.041 376.627c-4.558 8.308-16.026 19.228-21.872 31.425-1.527-5.501-3.39-11.193-3.39-11.193s-7.145-38.227 13.99-48.106a14.14 14.14 0 0 1 9.822 2.744c3.01 10.178 4.433 19.692 1.45 25.13" opacity=".1"/><path fill="#575a89" d="m845.145 374.218-17.916 5.225-24.877.965-2.56 21.616 40.883 2.944s10.212-28.708 4.47-30.75"/><path fill="#ffb9b9" d="M874.361 446.898s-23.969 3.977-18.498 11.19 26.704-.37 26.704-.37Z"/><path d="M903.695 423.588c.541 10.466 4.397 22.57 5.78 31.372-7.636 7.227-14.897 13.6-17.633 13.707-5.654.22-14.744-.56-18.093.702s-5.312-20.179-5.312-20.179 1.999-6.872 10.913-10.615c6.017-2.532 17.551-9.4 24.345-14.987" opacity=".1"/><path fill="#575a89" d="M917.505 341.968s19.135-3.007 18.102 28.742 2.017 52.016-5.68 57.976-32.695 32.977-38.348 33.196-14.744-.56-18.093.702-5.312-20.178-5.312-20.178 1.998-6.873 10.913-10.616 29.917-17.014 29.741-21.537-5.312-20.179-5.312-20.179-7.145-38.227 13.99-48.106"/><circle cx="870.433" cy="296.23" r="24.896" fill="#ffb9b9"/><path fill="#2f2e41" d="M853.67 260.547a4.8 4.8 0 0 1-2.093 1.05 1.494 1.494 0 0 1-1.731-1.198 6.2 6.2 0 0 1-2.375 3.046c-1.163.606-2.962.098-3.13-1.203a5.5 5.5 0 0 1-1.263 2.667 1.89 1.89 0 0 1-2.66.089c.51 2.783.196 5.645.355 8.47s.914 5.82 3.048 7.677c3.112 2.71 7.793 2.04 11.887 1.527a3.6 3.6 0 0 1 1.863.102c1.533.653 1.464 2.787 1.484 4.454a12.374 12.374 0 0 0 10.836 11.75 6.2 6.2 0 0 0 4.61-1.125c1.162-.985 1.756-2.591 3.088-3.331 2.167-1.204 4.795.552 6.379 2.458s3.145 4.252 5.6 4.601c3.245.462 5.718-2.846 6.93-5.892a34.35 34.35 0 0 0-.682-26.689c-6.778-14.773-29.929-17.11-42.146-8.453"/></svg>