<svg xmlns="http://www.w3.org/2000/svg" xmlns:xlink="http://www.w3.org/1999/xlink" width="891" height="711.05" data-name="Layer 1"><defs><linearGradient id="a" x1="213.62" x2="213.62" y1="486" gradientUnits="userSpaceOnUse"><stop offset="0" stop-color="gray" stop-opacity=".25"/><stop offset=".54" stop-color="gray" stop-opacity=".12"/><stop offset="1" stop-color="gray" stop-opacity=".1"/></linearGradient><linearGradient xlink:href="#a" id="b" x1="227.62" x2="227.62" y1="373" y2="362"/><linearGradient xlink:href="#a" id="c" x1="227.62" x2="227.62" y1="429" y2="418"/><linearGradient xlink:href="#a" id="d" x1="329.62" x2="329.62" y1="429" y2="418"/><linearGradient xlink:href="#a" id="e" x1="336.62" x2="336.62" y1="83" y2="72"/><linearGradient xlink:href="#a" id="f" x1="336.62" x2="336.62" y1="98" y2="87"/><linearGradient xlink:href="#a" id="g" x1="336.62" x2="336.62" y1="113" y2="102"/><linearGradient xlink:href="#a" id="h" x1="336.62" x2="336.62" y1="128" y2="117"/><linearGradient xlink:href="#a" id="i" x1="214.12" x2="214.12" y1="332" y2="182"/><linearGradient xlink:href="#a" id="j" x1="383.9" x2="383.9" y1="435.3" y2="283.3" gradientTransform="translate(-5.78 .18)"/><linearGradient xlink:href="#a" id="k" x1="442.9" x2="442.9" y1="321.3" y2="307.3" gradientTransform="translate(-10.11 -4.98)"/><linearGradient xlink:href="#a" id="l" x1="484.9" x2="484.9" y1="317.3" y2="303.3" gradientTransform="translate(-10.64 -8.78)"/><linearGradient xlink:href="#a" id="m" x1="547.96" x2="547.96" y1="413.42" y2="413.16"/><linearGradient xlink:href="#a" id="n" x1="517.63" x2="517.63" y1="581.29" y2="408.48"/><linearGradient xlink:href="#a" id="o" x1="191.31" x2="191.31" y1="423.33" y2="423.02"/><linearGradient xlink:href="#a" id="p" x1="228.23" x2="228.23" y1="619.83" y2="417.36"/><linearGradient xlink:href="#a" id="q" x1="692" x2="692" y1="659.05" y2="163.05"/><linearGradient xlink:href="#a" id="r" x1="595.12" x2="595.12" y1="395.68" y2="241.68"/><linearGradient xlink:href="#a" id="s" x1="788.12" x2="788.12" y1="472.68" y2="318.68"/><linearGradient xlink:href="#a" id="t" x1="696.12" x2="696.12" y1="614.68" y2="508.68"/><linearGradient xlink:href="#a" id="u" x1="749.12" x2="749.12" y1="475.15" y2="351.15"/><linearGradient xlink:href="#a" id="v" x1="790.62" x2="790.62" y1="362.68" y2="344.68"/><linearGradient xlink:href="#a" id="w" x1="760.62" x2="760.62" y1="699.68" y2="677.68"/><linearGradient xlink:href="#a" id="x" x1="607.62" x2="607.62" y1="687.68" y2="566.68"/><linearGradient xlink:href="#a" id="y" x1="608.62" x2="608.62" y1="648.68" y2="648.68"/><linearGradient xlink:href="#a" id="z" x1="482.12" x2="482.12" y1="645.68" y2="590.68"/><linearGradient xlink:href="#a" id="A" x1="459.62" x2="459.62" y1="699.68" y2="677.68"/><linearGradient xlink:href="#a" id="B" x1="486.35" x2="600.65" y1="708.79" y2="708.79"/></defs><ellipse cx="370" cy="694.05" fill="#f2f2f2" rx="67" ry="17"/><ellipse cx="375" cy="506.05" fill="#f2f2f2" rx="67" ry="17"/><ellipse cx="67" cy="514.05" fill="#f2f2f2" rx="67" ry="17"/><path fill="#f5f5f5" d="M22.62 4h383v14.5h-383z"/><path fill="url(#a)" d="M15.62 0h396v486h-396z"/><path fill="#fff" d="M22.62 18.5h383V478h-383z"/><circle cx="30.5" cy="11.5" r="3.5" fill="#ff5252"/><circle cx="40.12" cy="11.5" r="3.5" fill="#ff0"/><circle cx="49.75" cy="11.5" r="3.5" fill="#69f0ae"/><path fill="#6415ff" d="M33.62 36h149v9h-149z" opacity=".2"/><path fill="#f5f5f5" d="M139.62 73h149v9h-149z"/><path fill="#6415ff" d="M33.62 363h149v9h-149z" opacity=".5"/><path fill="url(#b)" d="M202.62 362h50v11h-50z"/><path fill="url(#c)" d="M202.62 418h50v11h-50z"/><path fill="url(#d)" d="M304.62 418h50v11h-50z"/><path fill="#6415ff" d="M204.62 363h47v9h-47zM204.62 419h47v9h-47zM305.62 419h47v9h-47z"/><path fill="#f5f5f5" d="M33.62 391h149v9h-149z"/><path fill="#6415ff" d="M204.62 391h149v9h-149z" opacity=".5"/><path fill="#f5f5f5" d="M204.62 447h149v9h-149z"/><path fill="#6415ff" d="M33.62 419h149v9h-149z" opacity=".5"/><path fill="#f5f5f5" d="M33.62 447h149v9h-149zM139.62 88h84v9h-84zM238.62 88h29v9h-29zM139.62 118h84v9h-84zM238.62 118h29v9h-29zM139.62 103h149v9h-149z"/><path fill="#6415ff" d="M243.62 36h149v9h-149z" opacity=".2"/><path fill="url(#e)" d="M327.62 72h18v11h-18z"/><path fill="url(#f)" d="M327.62 87h18v11h-18z"/><path fill="url(#g)" d="M327.62 102h18v11h-18z"/><path fill="#ff5252" d="M328.62 73h16v9h-16z"/><path fill="#ff9800" d="M328.62 88h16v9h-16z"/><path fill="#69f0ae" d="M328.62 103h16v9h-16z"/><path fill="url(#h)" d="M327.62 117h18v11h-18z"/><path fill="#6415ff" d="M328.62 118h16v9h-16z"/><path fill="url(#i)" d="M30.62 182h367v150h-367z"/><path fill="#6415ff" d="M33.62 185h359v142h-359z" opacity=".5"/><path fill="#fff" d="M44.62 196h348v-11h-359v142h11z" opacity=".5"/><path fill="url(#j)" d="M193.12 283.48h370v152h-370z" transform="rotate(-5.2 -739.107 2013.604)"/><path fill="#fff" d="m38.811 209.538 357.523-32.537 12.87 141.416L51.68 350.954z"/><path fill="#6415ff" d="m65.5 325.59-6.2-78.77s32-34 96.6-8.8 95.06 7.41 105.56-9.61 65-36 82.66-7.53 38.84-3.54 38.84-3.54l7.16 78.67Z" opacity=".5"/><path fill="none" stroke="#6415ff" stroke-miterlimit="10" d="m98.03 229.66.54 5.98"/><path fill="none" stroke="#6415ff" stroke-dasharray="11.51 11.51" stroke-miterlimit="10" d="m99.62 247.1 5.74 63.06"/><path fill="none" stroke="#6415ff" stroke-miterlimit="10" d="m105.88 315.89.55 5.97M159.52 239.42l.55 5.97"/><path fill="none" stroke="#6415ff" stroke-dasharray="13.06 13.06" stroke-miterlimit="10" d="m161.25 258.4 4.15 45.51"/><path fill="none" stroke="#6415ff" stroke-miterlimit="10" d="m165.99 310.41.54 5.98M222.26 250.1l.6 5.97"/><path fill="none" stroke="#6415ff" stroke-dasharray="9.79 9.79" stroke-miterlimit="10" d="m223.83 265.82 3.38 34.1"/><path fill="none" stroke="#6415ff" stroke-miterlimit="10" d="m227.7 304.79.59 5.98M278.65 214.84l.54 5.98"/><path fill="none" stroke="#6415ff" stroke-dasharray="11.28 11.28" stroke-miterlimit="10" d="m280.21 232.05 5.63 61.79"/><path fill="none" stroke="#6415ff" stroke-miterlimit="10" d="m286.35 299.45.55 5.98M319.35 206.59l.54 5.97"/><path fill="none" stroke="#6415ff" stroke-dasharray="11.93 11.93" stroke-miterlimit="10" d="m320.97 224.44 5.95 65.33"/><path fill="none" stroke="#6415ff" stroke-miterlimit="10" d="m327.46 295.71.55 5.97"/><circle cx="252.36" cy="323.73" r="5" fill="#ff9800" transform="rotate(-5.2 -864.923 1977.88)"/><circle cx="313.56" cy="334.23" r="5" fill="#ff5252" transform="rotate(-5.2 -803.722 1988.382)"/><circle cx="376.76" cy="344.54" r="5" fill="#69f0ae" transform="rotate(-5.2 -740.524 1998.644)"/><circle cx="432.8" cy="309.31" r="7" fill="url(#k)" transform="rotate(-5.2 -684.42 1963.457)"/><circle cx="474.26" cy="301.52" r="7" fill="url(#l)" transform="rotate(-5.2 -642.91 1955.633)"/><circle cx="432.8" cy="309.31" r="5" fill="#6415ff" transform="rotate(-5.2 -684.42 1963.457)"/><circle cx="474.26" cy="301.52" r="5" fill="#6415ff" transform="rotate(-5.2 -642.91 1955.633)"/><circle cx="537.64" cy="313.82" r="5" fill="#69f0ae" transform="rotate(-5.2 -579.477 1968.002)"/><path fill="url(#m)" d="m547.76 413.2.07.23c.77-.43-.07-.23-.07-.23" opacity=".2" transform="translate(-154.5 -94.48)"/><path fill="url(#n)" d="m539.48 581.18 16.28-2.63-2.24-10v-.14h-.06l-11.54-53v-38.65a14 14 0 0 0-.08-1.47c17.24-22.86 7-58.73 6-61.86-.18.09-.45.21-.83.36a21 21 0 0 0-.79-4.13s-5-3.18-7.73.91c-2.38 3.57-.61 5.75-.12 6.26l-.34.11a11.5 11.5 0 0 1 1.58 3.94 9 9 0 0 0-.54-1c-.63-.11-1-.21-1-.21l-.12-.11-.34.11c1.73 2.53 2.34 7 2.26 12.3a17.4 17.4 0 0 0-2-2.31 17.65 17.65 0 0 0-11.7-4.88h-.83q-.68 0-1.36.09h-.34l-.57.08-.65.12-.47.1-.81.22-.3.09c-.34.11-.67.22-1 .35a17.2 17.2 0 0 1-3.43 1.24c-.16 0-.32 0-.49.05a5.72 5.72 0 0 1-3.75-1.07l-.36-.28a5 5 0 0 1-.39-.37 2.5 2.5 0 0 0-.17 1.09 3.35 3.35 0 0 0 1.17 2.27 3.2 3.2 0 0 0 .62.42 2.7 2.7 0 0 0 1.06.3h.38-.09c-.23.11-.46.21-.7.3h-.05c-.26.09-.51.17-.78.24a8.7 8.7 0 0 1-4 .06l-.43-.1c-.21-.06-.43-.12-.63-.19a5 5 0 0 0 .22.44l.08.13.18.28.11.14.2.25.12.13.25.25.1.09.37.31.13.09.27.19.18.11.24.14.2.1.25.11.21.09.28.1.35.1.26.07h1.74a5 5 0 0 0 1.5-.37l-.92.38-.46.16-.47.17-.47.14-.48.14-.47.12-.5.12-.46.09-.53.09-.44.07-.57.07h-2.4a4.2 4.2 0 0 1 1.51.8 4 4 0 0 0 .93.5 4 4 0 0 0 .45.1H512a6.5 6.5 0 0 1 2.59.83 4.7 4.7 0 0 1 1.11 1c-.14.23-.28.45-.4.69s-.21.4-.31.61q-.3.62-.53 1.27a14.1 14.1 0 0 0-.86 4.85v1.16q0 .36.08.72v.19q.06.44.16.87v.17q.08.36.18.71l.06.21a14 14 0 0 0 .61 1.66l.07.16q.17.37.35.72v.07q.22.4.46.79v.06q.22.36.47.7l.06.08a14 14 0 0 0 1.17 1.41 14.1 14.1 0 0 0 3.77 2.83 6 6 0 0 0-.11.65 6 6 0 0 0 0 .68v5.28q-.45.24-.88.51c-12.53-5.69-31.19-46-31.19-46h-.45c1.82-1.36 0-7.28 0-7.28a8.5 8.5 0 0 0-3.5-1.16h-1.61l-.2.06h-.1l-.3.11-.28.13-.1.05-.19.11-.13.61-.18.12-.11.09-.17.14-.11.1-.17.16-.1.11-.17.2-.08.1-.25.34c-2.73 4.09 0 6.37 0 6.37a41 41 0 0 0-.25 4.75c-.2 29.46 31.33 52.29 32.94 53.43-.71 1.84-6.57 18.14.07 38.49a.7.7 0 0 0 .08.14 59.08 59.08 0 0 0-17.72 55.88l.13.61h.29a4 4 0 0 1-.11.4 4.6 4.6 0 0 1-.29.7 5.4 5.4 0 0 1-.73 1.07c-.31.36-.67.72-1.05 1.09l-.4.38c-1.59 1.52-3.2 3-2 3.6h17.21v-7.51h.3s-.12-.23-.3-.68V571h-.06c-.9-2.32-3-9.5.36-20.56 4.09-13.65 20-20.47 20-20.47l.29 1h-.06l12.48 41c0 .16 0 .32-.05.49a6.7 6.7 0 0 1-.27 1.14 7 7 0 0 1-.34.84c-.77 1.59-2.1 3.46-2.68 4.86a5 5 0 0 0-.21.59 1.8 1.8 0 0 0-.07.7.81.81 0 0 0 .53.67h.23l.48-.08Zm-4.82-116.73q-.47-.26-1-.49V459a6.3 6.3 0 0 0-.11-1.13 14 14 0 0 0 3-1.93c-.6 3.06-1.27 5.99-1.88 8.51Z" opacity=".2" transform="translate(-154.5 -94.48)"/><path fill="#ca7070" d="M325.88 328.61s-3-2.52 0-7.06 8.57-1 8.57-1 2 6.55 0 8.06-8.57 0-8.57 0"/><path fill="#00695c" d="M357.04 497.27h-13.89a4.56 4.56 0 0 1-1.31 3.57c-1.87 2.16-5.63 4.77-3.86 5.66h19.06Z" data-name="&lt;Path&gt;"/><path fill="#fff" d="M342.85 500.84a4.56 4.56 0 0 0 1.31-3.57h-1a4.56 4.56 0 0 1-1.31 3.57c-1.87 2.16-5.63 4.77-3.86 5.66h1c-1.77-.89 1.99-3.49 3.86-5.66" opacity=".2"/><path fill="#00695c" d="m406.5 494.41-13 2.11a6.62 6.62 0 0 1-.59 4.58c-1.42 3-4.61 6.74-2.69 7.55l18.82-3Z" data-name="&lt;Path&gt;"/><path fill="#00695c" d="M400.16 322.46s14.87 46.91-10.07 72.88l-7.2-5.51s14.74-51.2 6.49-63.22c14.56-4.85 10.78-4.15 10.78-4.15"/><path fill="#ca7070" d="M389.88 326.6s-3-2.52 0-7.06 8.57-1 8.57-1 2 6.55 0 8.06-8.57 0-8.57 0"/><path fill="#fff" d="M393.91 501.11a6.62 6.62 0 0 0 .59-4.59l12-2v-.16l-13 2.16a6.62 6.62 0 0 1-.59 4.58c-1.42 3-4.61 6.74-2.69 7.55l.79-.13c-1.43-1 1.54-4.59 2.9-7.41" opacity=".2"/><rect width="14.11" height="20.91" x="370.48" y="366.16" fill="#ca7070" rx="7.06" ry="7.06"/><path fill="#fff" d="M383.9 392.85s14.56-50.57 6.63-63c-.7-.13-1.15-.23-1.15-.23l-.13-.12-.37.12c8.25 12-6.49 63.22-6.49 63.22l7.2 5.51.63-.68Z" opacity=".2"/><circle cx="377.79" cy="357.85" r="15.62" fill="#ca7070"/><path fill="#fff" d="M372.24 380.02v-6.8a7 7 0 0 1 .16-1.48 15.62 15.62 0 0 1 6.26-29.49h-.88a15.62 15.62 0 0 0-7.15 29.51 7 7 0 0 0-.16 1.48v6.8a7 7 0 0 0 7.94 7 7.08 7.08 0 0 1-6.17-7.02" opacity=".2"/><path fill="#00695c" d="M393.66 435.7s-30.13 3.4-31.24 0c-7.81-23.94 0-42.83 0-42.83a15.62 15.62 0 0 1 15.62-15.62 15.62 15.62 0 0 1 15.62 15.62Z"/><path fill="#263238" d="m393.66 435.7 13.61 62.49h-13.61l-14.11-46.36s-17.64 7.56-22.17 22.68 0 23.68 0 23.68h-14.62l-.15-.68a65 65 0 0 1 19.8-61.81"/><path fill="#fff" d="M364.18 435.7c-7.81-23.94 0-42.83 0-42.83a15.62 15.62 0 0 1 14.61-15.59h-1a15.62 15.62 0 0 0-15.62 15.62s-7.81 18.9 0 42.83c.4 1.22 4.52 1.56 9.64 1.51-4.16-.09-7.31-.49-7.63-1.54" opacity=".2"/><path fill="#00695c" d="M362.17 392.61s-40.31-28.22-36.28-64h9.07s21.66 46.91 35.54 51.41-8.33 12.59-8.33 12.59"/><g fill="#fff" opacity=".2"><path d="m379.81 452.93 13.85 45.51h2l-14.11-46.36s-.65.28-1.74.85M364.43 435.95h-2a65 65 0 0 0-19.8 61.81l.15.68h2l-.15-.68a65 65 0 0 1 19.8-61.81"/></g><path fill="#fff" d="M327.4 329.12h-1.51c-4 35.78 36.28 64 36.28 64l1-.38c-4.67-3.45-39.54-30.22-35.77-63.62" opacity=".2"/><path fill="#263238" d="M365.33 350.87a25.9 25.9 0 0 1 1.82 6.29c1 4.38 3.26 8.75 7.15 11a15.9 15.9 0 0 0 7 1.91c3.72.23 7.75-.49 10.38-3.13a12.86 12.86 0 0 0 3.17-6.39 21.63 21.63 0 0 0-5.69-19.88 19.19 19.19 0 0 0-20-4.19 19 19 0 0 1-3.79 1.38 6.31 6.31 0 0 1-5.53-1.84 3.49 3.49 0 0 0 3.37 4.52 9.73 9.73 0 0 1-7.46.4 6.33 6.33 0 0 0 8 3.19 21.3 21.3 0 0 1-9 1.84c.65 0 1.92 1.2 2.71 1.44a17 17 0 0 0 3 .21 5.82 5.82 0 0 1 4.87 3.25"/><g fill="#fff" opacity=".2"><path d="M363.25 340.52a9.6 9.6 0 0 1-3.7.95 9.7 9.7 0 0 0 4.71-.95 3.53 3.53 0 0 1-3.54-3.81 6 6 0 0 1-.84-.71 3.49 3.49 0 0 0 3.37 4.52M366.41 337.87a19 19 0 0 0 3.79-1.38 17.4 17.4 0 0 1 6-1.21 17.6 17.6 0 0 0-7 1.21 19 19 0 0 1-3.79 1.38c-.18 0-.36 0-.54.06a6 6 0 0 0 1.54-.06M358.42 347.42c-.79-.23-2.06-1.42-2.71-1.44a21.3 21.3 0 0 0 9-1.84 5.6 5.6 0 0 1-2 .42 21.3 21.3 0 0 1-8 1.42c.65 0 1.92 1.2 2.71 1.44a6.7 6.7 0 0 0 2.1.17 4.4 4.4 0 0 1-1.1-.17M382.33 370.08a15.9 15.9 0 0 1-7-1.91c-3.89-2.27-6.11-6.64-7.15-11a25.9 25.9 0 0 0-1.82-6.29 5.82 5.82 0 0 0-4.93-3.23 10 10 0 0 0-1.5 0h.49a5.82 5.82 0 0 1 4.93 3.23 25.9 25.9 0 0 1 1.82 6.29c1 4.38 3.26 8.75 7.15 11a15.9 15.9 0 0 0 7 1.91h1.75ZM362.08 344.52a6.38 6.38 0 0 1-5.12-3.27 9 9 0 0 1-1.17-.33 6.38 6.38 0 0 0 6.29 3.6"/></g><path fill="#fff" d="M326.89 328.61s-3-2.52 0-7.06a4.83 4.83 0 0 1 3.74-2.29 4.9 4.9 0 0 0-4.74 2.29c-3 4.54 0 7.06 0 7.06a27.3 27.3 0 0 0 5.93.66 30 30 0 0 1-4.93-.66" opacity=".2"/><path fill="url(#o)" d="m191.47 423.33.08-.27s-1.02-.2-.08.27" opacity=".2" transform="translate(-154.5 -94.48)"/><path fill="url(#p)" d="M285.7 440.09a6.6 6.6 0 0 0-.36-.93c0-.1-.1-.18-.15-.27a6 6 0 0 0-.3-.52l-.2-.26a5 5 0 0 0-.33-.39l-.23-.23q-.18-.165-.36-.3l-.25-.18-.4-.24-.25-.13-.45-.19-.23-.09q-.32-.11-.65-.18a10.3 10.3 0 0 0-4.39.12s-4.19 6.18-2.58 8.4l-.53-.16s-31.13 34.74-48.69 41.19q-.67-.46-1.39-.86v-6.5a8 8 0 0 0 0-.82 8 8 0 0 0-.13-.77l.13-.07.52-.29.75-.46.48-.31q.54-.37 1-.78l.39-.34q.36-.3.69-.63l.4-.39q.42-.43.8-.88l.28-.34q.36-.45.69-.92l.28-.42q.3-.46.57-.94l.18-.31c.22-.41.43-.84.61-1.28l.16-.39q.21-.53.39-1.07c0-.13.09-.25.12-.38.14-.47.27-.94.37-1.43 0-.1 0-.19.05-.29q.12-.61.19-1.24v-.42c0-.51.08-1 .08-1.55a17 17 0 0 0-3.78-10.69c1.33-2.08 2.2-3.31 2.2-3.31-.8-.55-1.59-1.05-2.37-1.54l-.76-.45c-.52-.31-1-.62-1.56-.9l-.87-.46c-.47-.25-.93-.49-1.39-.71l-.89-.41-1.33-.58-.87-.35a42 42 0 0 0-1.31-.48l-.82-.28c-.45-.14-.9-.27-1.34-.39l-.73-.2c-.5-.12-1-.22-1.49-.32l-.53-.11c-.67-.12-1.33-.21-2-.27a23.7 23.7 0 0 0-12 1.84c.2-4.78 1-8.72 2.68-11.16l-.41-.14-.14.14s-.49.11-1.26.25a10 10 0 0 0-.65 1.21 13.9 13.9 0 0 1 1.91-4.76l-.41-.14c.59-.61 2.73-3.24-.14-7.55-3.3-4.94-9.34-1.1-9.34-1.1a25.6 25.6 0 0 0-.94 5c-.46-.19-.79-.33-1-.44a124.5 124.5 0 0 0-4.69 31.36c-10.89 15.46-15.39 38.28-16.27 43.2l-.07.39c-.06.36-.09.55-.09.55l28.31.66v45.12L178 588.22s7.84.25 19.64 1.76l-3.26 23.31-1.09 6.54h19.62c2.18-4.36-8.72-6.54-8.72-6.54h-.24l4.25-21.75q2.82.47 5.8 1a57 57 0 0 0 8.83 1 47 47 0 0 0 7.35-.32c1.44 11.79-.45 18.83-.81 20h-.11l-1.09 6.54h19.62c1.9-3.8-6.14-5.95-8.23-6.43l.09-.64a109.4 109.4 0 0 0 .77-22.2 26.9 26.9 0 0 0 7-4.17l.27-.24.08-.08-14.61-41c2.73-11.6-6.77-23.78-1.7-29.87s2-13.86 1.4-15.19c13.72-6 41.45-21 49.23-47a49 49 0 0 0 1.39-5.57s3.92-1.59 2.22-7.28" opacity=".2" transform="translate(-154.5 -94.48)"/><path fill="#ff5252" d="M40.08 336.46s-14.87 46.91 10.07 72.88l7.2-5.51s-14.74-51.2-6.49-63.22c-14.56-4.85-10.78-4.15-10.78-4.15"/><path fill="#f6b9ad" d="M50.36 340.6s3-2.52 0-7.06-8.57-1-8.57-1-2 6.55 0 8.06 8.57 0 8.57 0"/><rect width="14.11" height="20.91" x="210.15" y="474.64" fill="#f6b9ad" rx="7.06" ry="7.06" transform="rotate(180 139.955 437.855)"/><path fill="#fff" d="M56.34 406.85s-14.56-50.57-6.63-63c.7-.13 1.15-.23 1.15-.23l.13-.12.37.12c-8.25 12 6.49 63.22 6.49 63.22l-7.2 5.51-.63-.68Z" opacity=".2"/><circle cx="62.45" cy="371.85" r="15.62" fill="#f6b9ad"/><path fill="#fff" d="M68 394.02v-6.8a7 7 0 0 0-.16-1.48 15.62 15.62 0 0 0-6.26-29.49h.88a15.62 15.62 0 0 1 7.15 29.51 7 7 0 0 1 .16 1.48v6.8a7 7 0 0 1-7.94 7 7.08 7.08 0 0 0 6.17-7.02" opacity=".2"/><path fill="#ff5252" d="M46.58 449.7s30.13 3.4 31.24 0c3.6-11-6-22.89-1.2-28.7 5-6 1.2-14.13 1.2-14.13a15.62 15.62 0 0 0-15.62-15.62 15.62 15.62 0 0 0-15.62 15.62Z"/><path fill="#fff" d="M76.66 421c5-6 1.2-14.13 1.2-14.13a15.62 15.62 0 0 0-15.62-15.62c-.34 0-.67 0-1 .05a15.61 15.61 0 0 1 14.62 15.57s3.8 8.13-1.2 14.13c-4.84 5.81 4.8 17.69 1.2 28.7-.34 1.05-3.45 1.45-7.58 1.51 5.09.05 9.19-.29 9.58-1.51 3.64-11.02-6.04-22.89-1.2-28.7" opacity=".2"/><path fill="#f6b9ad" d="M71.43 448.7c11 15.59 15.87 39.15 12.72 61.81l-.09.68h-9.39s2.91-8.57 0-23.68a37.4 37.4 0 0 0-14.24-22.68l-9.06 46.36h-8.74l8.74-62.49ZM124.39 358.83s3.63-1.52 2.07-6.75-7.9-3.47-7.9-3.47-3.85 5.67-2.36 7.71 8.19 2.51 8.19 2.51"/><path fill="#ff5252" d="M70.94 409.39s46.81-15.17 53.44-50.56l-8.67-2.66s-34.45 38.46-49 38.73 4.23 14.49 4.23 14.49"/><path fill="#fff" d="m122.79 358.87 1.45.44c-6.63 35.39-53.44 50.56-53.44 50.56l-.83-.65c5.53-1.92 46.64-17.34 52.82-50.35" opacity=".2"/><g fill="#fff" opacity=".2"><path d="m58.42 464.83-9.06 46.36h2l8.8-45a22 22 0 0 0-1.74-1.36M71.43 448.7h-2c11 15.59 15.87 39.15 12.72 61.81l-.09.68h2l.09-.68c3.15-22.66-1.7-46.22-12.72-61.81"/></g><path fill="#fff" d="M123.42 358.52s3.63-1.52 2.07-6.75a4.83 4.83 0 0 0-2.9-3.29 4.9 4.9 0 0 1 3.86 3.58c1.56 5.22-2.07 6.75-2.07 6.75a27.3 27.3 0 0 1-5.86-1.1 30 30 0 0 0 4.9.81" opacity=".2"/><path fill="#263238" d="m46.58 448-19 40a235 235 0 0 1 33 4c21 4 31-6 31-6l-13.55-38Z"/><path fill="#ff5252" d="M51.62 511s10 2 8 6h-18l1-6ZM83.62 511s10 2 8 6h-18l1-6Z"/><path fill="#fccc63" d="M76.62 359s-24 34-13 48l-43-1s12-77 56-47"/><path fill="#fff" d="M76.62 359c-6.2-4.23-11.76-6.33-16.75-6.82A42.3 42.3 0 0 1 71.62 358s-24 34-13 48l-37.85-.88c-.1.57-.15.88-.15.88l43 1c-11-14 13-48 13-48M78.08 448h-3l13.55 38s-6.46 6.45-19.9 6.91c15.47.5 22.9-6.91 22.9-6.91ZM51.62 511h-2s10 2 8 6h2c2-4-8-6-8-6M83.62 511h-2s10 2 8 6h2c2-4-8-6-8-6" opacity=".2"/><path fill="#f5f5f5" d="M500.62 167.68h383v14.5h-383z"/><path fill="url(#q)" d="M493 163.05h398v496H493z"/><path fill="#fff" d="M500.62 182.18h383v459.5h-383z"/><circle cx="509.5" cy="175.18" r="3.5" fill="#ff5252"/><circle cx="519.12" cy="175.18" r="3.5" fill="#ff0"/><circle cx="528.75" cy="175.18" r="3.5" fill="#69f0ae"/><path fill="#6415ff" d="M524.62 202.68h336v9h-336z" opacity=".2"/><path fill="url(#r)" d="M522.62 241.68h145v154h-145z"/><path fill="#fff" d="M525.62 246.68h139v144h-139z"/><path fill="url(#s)" d="M715.62 318.68h145v154h-145z"/><path fill="#fff" d="M718.62 323.68h139v144h-139z"/><path fill="url(#t)" d="M525.62 508.68h341v106h-341z"/><path fill="#6415ff" d="M532.62 515.68h328v95h-328z" opacity=".5"/><path fill="#fff" d="M540.62 524.68h320v-9h-328v95h8z" opacity=".5"/><path fill="url(#u)" d="M796.09 372.71a62 62 0 1 0 15 40.45 61.84 61.84 0 0 0-15-40.45m-25 77.47a43 43 0 1 1 21.08-37 42.81 42.81 0 0 1-21.05 37Z" transform="translate(-154.5 -94.48)"/><path fill="#ff5252" d="m625.67 291.94 13.65-11.75a58.85 58.85 0 0 0-44.7-20.51v18a40.91 40.91 0 0 1 31.05 14.26"/><path fill="#69f0ae" d="M594.62 359.67A40.7 40.7 0 0 1 577.7 356l-7.43 16.41a59 59 0 0 0 54.49-3l-9.2-15.49a40.74 40.74 0 0 1-20.94 5.75"/><path fill="#ff9800" d="M653.62 318.67a58.75 58.75 0 0 0-14.3-38.49l-13.65 11.75a40.93 40.93 0 0 1-10.11 62l9.2 15.49a59 59 0 0 0 28.86-50.75"/><path fill="#6415ff" d="M553.62 318.67a41 41 0 0 1 41-41v-18a59 59 0 0 0-24.35 112.74L577.7 356a41 41 0 0 1-24.08-37.33"/><path fill="url(#v)" d="M737.62 344.68h106v18h-106z"/><path fill="#6415ff" d="M738.62 345.68h104v16h-104z"/><path fill="#ff5252" d="M738.62 372.68h76v16h-76z"/><path fill="#69f0ae" d="M738.62 399.68h52v16h-52z"/><path fill="#ff9800" d="M738.62 426.68h94v16h-94z"/><path fill="#f5f5f5" d="M525.62 419.68h149v9h-149zM525.62 434.68h84v9h-84zM624.62 434.68h29v9h-29zM624.62 467.68h29v9h-29zM525.62 464.68h84v9h-84zM525.62 449.68h149v9h-149zM713.62 242.68h149v9h-149zM713.62 257.68h84v9h-84zM812.62 257.68h29v9h-29zM812.62 290.68h29v9h-29zM713.62 287.68h84v9h-84zM713.62 272.68h149v9h-149z"/><circle cx="760.62" cy="688.68" r="11" fill="url(#w)"/><circle cx="760.62" cy="688.68" r="8" fill="#ff5252"/><path fill="url(#x)" d="M435.62 566.68h344v121h-344z"/><path fill="#fff" d="M445.62 571.68h328v95h-328z"/><path fill="url(#y)" stroke="#6415ff" stroke-miterlimit="10" stroke-width="3" d="M456.62 648.68h304"/><path fill="url(#z)" d="M459.62 590.68h45v55h-45z"/><path fill="#6415ff" d="M462.12 593.18h40v51h-40z"/><path fill="#69f0ae" d="M712.62 629.68h40v16h-40z"/><path fill="#ff9800" d="M637.62 608.68h40v36h-40z"/><path fill="#ff5252" d="M549.62 614.68h40v30h-40zM445.62 666.68h328v14h-328z"/><circle cx="459.62" cy="688.68" r="11" fill="url(#A)"/><circle cx="459.62" cy="688.68" r="8" fill="#ff5252"/><path fill="#ff5252" d="M437.62 575.68h8v105h-8z"/><path d="M437.62 575.68h8v105h-8z" opacity=".2"/><path fill="url(#B)" d="M600.65 681.32v-.81c0-.16 0-.21-.06-.31s-.07-.3-.12-.44-.06-.19-.1-.29-.12-.28-.18-.42l-.12-.25c-.08-.14-.17-.28-.26-.41l-.13-.19a7 7 0 0 0-.42-.52 9.6 9.6 0 0 0-2.79-2.06 8.05 8.05 0 0 0 1.79-3.08 6.4 6.4 0 0 0 .24-.94v-.29a6 6 0 0 0 .05-.58v-.81c0-.16 0-.21-.06-.31s-.07-.3-.12-.44-.06-.19-.1-.29-.12-.28-.18-.42l-.12-.25c-.08-.14-.17-.28-.26-.41l-.13-.19a7 7 0 0 0-.42-.52 10.1 10.1 0 0 0-3.55-2.4s-6.35 2.35-6.77 4.93c-4.66 1-31.82 6.65-50.47 6.2l-.14-.37a16.59 16.59 0 0 0-8.83-14.67v-6.28a8 8 0 0 0 0-.8 7 7 0 0 0-.12-.76l.12-.07.51-.28.74-.45.47-.31q.52-.36 1-.76l.38-.33c.23-.2.45-.4.67-.61l.39-.38q.41-.42.78-.86l.27-.34q.35-.44.67-.9l.27-.41q.29-.45.56-.92l.17-.3c.22-.4.42-.82.6-1.24l.15-.38q.21-.51.38-1l.12-.37c.14-.46.26-.92.36-1.39 0-.09 0-.19.05-.28q.11-.6.18-1.21v-.41c0-.5.08-1 .08-1.51a16.5 16.5 0 0 0-2.13-8.11c1.07-.26 1.72-.47 1.64-.57-.41-.55-.82-1.07-1.25-1.57l-.41-.47c-.3-.34-.59-.66-.89-1l-.48-.49c-.3-.3-.6-.58-.9-.85l-.47-.42q-.57-.48-1.14-.93l-.25-.2c-.46-.34-.92-.66-1.39-1l-.52-.32c-.3-.19-.61-.37-.92-.53l-.62-.32-.86-.41-.63-.28c-.3-.13-.61-.24-.92-.35l-.57-.21c-.46-.15-.92-.29-1.38-.41l-.71-.16-.77-.16-.77-.12-.71-.08-.79-.07h-1.47q-.65 0-1.3.06c-10.23.84-19.19 9.77-19.19 24V655h16v5.34a16.59 16.59 0 0 0-9.64 15.05v45.51l-13.58 62.39H489l-2.67 11.91 19.16 3.1.83.13c2-.86-1.35-4.89-2.86-8a9 9 0 0 1-.4-1 7.6 7.6 0 0 1-.38-1.94l14.72-48.29h-.07l.35-1.13s18.74 8 23.56 24.09c3.91 13 1.48 21.46.42 24.2h-.07v.16c-.21.52-.36.81-.36.81h.36v8.83h20.26c1.88-.95-2.11-3.72-4.1-6a5.67 5.67 0 0 1-1.32-2.55h.34l.16-.72a69.53 69.53 0 0 0-20.86-65.77.8.8 0 0 0 .09-.17 74.5 74.5 0 0 0 3.51-18.06c15.49 1.48 36.1.42 51.51-11.52a48 48 0 0 0 4.21-3.58c1.33-.1 3.66-.84 4.95-4.6a6.4 6.4 0 0 0 .24-.94v-.29a6 6 0 0 0 .07-.64" transform="translate(-154.5 -94.48)"/><path fill="#6415ff" d="M364.99 604.46s46.9 14.91 72.88-10l-5.51-7.21s-50.4 11.23-62.41 3-4.96 14.21-4.96 14.21"/><path fill="#fff" d="m436.55 593.52.92 1.2c-26 24.92-72.88 10-72.88 10s-.12-.38-.3-1c5.59 1.67 48.02 13.08 72.26-10.2" opacity=".2"/><path fill="#985454" d="M436.87 594.45s3.84.87 5.61-4.28-4.4-7.42-4.4-7.42-6.43 2.37-6.41 4.89 5.2 6.81 5.2 6.81"/><path fill="#fff" d="M436.26 593.64s3.84.87 5.61-4.28a4.83 4.83 0 0 0-.45-4.36 4.9 4.9 0 0 1 1.06 5.16c-1.77 5.16-5.61 4.28-5.61 4.28a27.3 27.3 0 0 1-4.12-4.31 30 30 0 0 0 3.51 3.51" opacity=".2"/><path fill="#6415ff" d="M387.2 687.27h13.89a4.56 4.56 0 0 0 1.31 3.57c1.87 2.16 5.63 4.77 3.86 5.66H387.2Z" data-name="&lt;Path&gt;"/><path fill="#fff" d="M401.39 690.84a4.56 4.56 0 0 1-1.31-3.57h1a4.56 4.56 0 0 0 1.31 3.57c1.87 2.16 5.63 4.77 3.86 5.66h-1c1.77-.89-1.99-3.49-3.86-5.66" opacity=".2"/><path fill="#6415ff" d="m337.73 684.41 13 2.13a6.62 6.62 0 0 0 .59 4.58c1.42 3 4.61 6.74 2.69 7.55l-18.82-3Z" data-name="&lt;Path&gt;"/><path fill="#fff" d="M350.33 691.11a6.62 6.62 0 0 1-.59-4.58l-12.05-2v-.16l13 2.13a6.62 6.62 0 0 0 .59 4.58c1.42 3 4.61 6.74 2.69 7.55l-.79-.13c1.48-.98-1.49-4.57-2.85-7.39" opacity=".2"/><rect width="14.11" height="20.91" x="514.15" y="650.64" fill="#985454" rx="7.06" ry="7.06" transform="rotate(180 443.955 613.855)"/><circle cx="366.45" cy="547.85" r="15.62" fill="#985454"/><path fill="#fff" d="M372 570.02v-6.8a7 7 0 0 0-.16-1.48 15.62 15.62 0 0 0-6.26-29.49h.88a15.62 15.62 0 0 1 7.15 29.51 7 7 0 0 1 .16 1.48v6.8a7 7 0 0 1-7.94 7 7.08 7.08 0 0 0 6.17-7.02" opacity=".2"/><path fill="#6415ff" d="M350.58 625.7s30.13 3.4 31.24 0c7.81-23.94 0-42.83 0-42.83a15.62 15.62 0 0 0-15.62-15.62 15.62 15.62 0 0 0-15.62 15.62Z"/><path fill="#263238" d="m350.58 625.7-13.61 62.49h13.61l14.11-46.36s17.64 7.56 22.17 22.68 0 23.68 0 23.68h14.64l.15-.68a65 65 0 0 0-19.8-61.81"/><path fill="#fff" d="M380.06 625.7c7.81-23.94 0-42.83 0-42.83a15.62 15.62 0 0 0-14.61-15.59h1a15.62 15.62 0 0 1 15.62 15.62s7.81 18.9 0 42.83c-.4 1.22-4.52 1.56-9.64 1.51 4.16-.09 7.29-.49 7.63-1.54" opacity=".2"/><g fill="#fff" opacity=".2"><path d="m364.43 642.93-13.85 45.51h-2l14.11-46.36s.65.28 1.74.85M379.81 625.95h2a65 65 0 0 1 19.8 61.81l-.15.68h-2l.15-.68a65 65 0 0 0-19.8-61.81"/></g><path fill="#6415ff" d="M362.99 594.46s46.9 14.91 72.88-10l-5.51-7.21s-50.4 11.23-62.41 3-4.96 14.21-4.96 14.21"/><path fill="#fff" d="m434.55 583.52.92 1.2c-26 24.92-72.88 10-72.88 10s-.12-.38-.3-1c5.59 1.67 48.02 13.08 72.26-10.2" opacity=".2"/><path fill="#985454" d="M434.87 584.45s3.84.87 5.61-4.28-4.4-7.42-4.4-7.42-6.43 2.37-6.41 4.89 5.2 6.81 5.2 6.81"/><path fill="#fff" d="M434.26 583.64s3.84.87 5.61-4.28a4.83 4.83 0 0 0-.45-4.36 4.9 4.9 0 0 1 1.06 5.16c-1.77 5.16-5.61 4.28-5.61 4.28a27.3 27.3 0 0 1-4.12-4.31 30 30 0 0 0 3.51 3.51" opacity=".2"/><path fill="#263238" d="m367.62 542.67-1 21h-22v-11.15c0-22.39 23.67-30.89 37-12.9.33.49-14 3.05-14 3.05"/><path fill="#fff" d="M362.68 530.01c5.61.46 11.38 3.52 15.94 9.67.33.44-14 3-14 3l-1 21h3l1-21s14.33-2.56 14-3c-5.37-7.26-12.43-10.16-18.94-9.67" opacity=".2"/></svg>