<svg xmlns="http://www.w3.org/2000/svg" width="100" height="100"><path fill="currentColor" fill-rule="evenodd" d="M11 18a7 7 0 1 0 0-14 7 7 0 0 0 0 14m48 25a7 7 0 1 0 0-14 7 7 0 0 0 0 14m-43-7a3 3 0 1 0 0-6 3 3 0 0 0 0 6m63 31a3 3 0 1 0 0-6 3 3 0 0 0 0 6M34 90a3 3 0 1 0 0-6 3 3 0 0 0 0 6m56-76a3 3 0 1 0 0-6 3 3 0 0 0 0 6M12 86a4 4 0 1 0 0-8 4 4 0 0 0 0 8m28-65a4 4 0 1 0 0-8 4 4 0 0 0 0 8m23-11a5 5 0 1 0 0-10 5 5 0 0 0 0 10m-6 60a4 4 0 1 0 0-8 4 4 0 0 0 0 8m29 22a5 5 0 1 0 0-10 5 5 0 0 0 0 10M32 63a5 5 0 1 0 0-10 5 5 0 0 0 0 10m57-13a5 5 0 1 0 0-10 5 5 0 0 0 0 10m-9-21a2 2 0 1 0 0-4 2 2 0 0 0 0 4M60 91a2 2 0 1 0 0-4 2 2 0 0 0 0 4M35 41a2 2 0 1 0 0-4 2 2 0 0 0 0 4M12 60a2 2 0 1 0 0-4 2 2 0 0 0 0 4"/></svg>